<mxfile host="65bd71144e" scale="1" border="10">
    <diagram id="-rriOPSDnHkLpZKLwRpb" name="Page-1">
        <mxGraphModel dx="2866" dy="2418" grid="1" gridSize="10" guides="1" tooltips="1" connect="1" arrows="1" fold="1" page="1" pageScale="1" pageWidth="850" pageHeight="1100" background="#FFFFFF" math="0" shadow="0">
            <root>
                <mxCell id="0"/>
                <mxCell id="1" parent="0"/>
                <mxCell id="383" style="edgeStyle=elbowEdgeStyle;html=1;exitX=0.5;exitY=1;exitDx=0;exitDy=0;entryX=0.5;entryY=0;entryDx=0;entryDy=0;endArrow=none;endFill=0;elbow=vertical;rounded=0;jumpStyle=arc;" parent="1" source="386" target="387" edge="1">
                    <mxGeometry relative="1" as="geometry">
                        <mxPoint x="-2200.5699999999997" y="-1983.5" as="sourcePoint"/>
                        <mxPoint x="-2280.58" y="-1923.5" as="targetPoint"/>
                    </mxGeometry>
                </mxCell>
                <mxCell id="384" style="edgeStyle=elbowEdgeStyle;elbow=vertical;html=1;exitX=0.5;exitY=1;exitDx=0;exitDy=0;entryX=0.5;entryY=0;entryDx=0;entryDy=0;endArrow=none;endFill=0;rounded=0;jumpStyle=arc;" parent="1" source="386" target="390" edge="1">
                    <mxGeometry relative="1" as="geometry"/>
                </mxCell>
                <mxCell id="386" value="UTENTE" style="whiteSpace=wrap;html=1;" parent="1" vertex="1">
                    <mxGeometry x="-2260.6000000000004" y="-2081.86" width="80" height="40" as="geometry"/>
                </mxCell>
                <mxCell id="387" value="GUEST" style="whiteSpace=wrap;html=1;" parent="1" vertex="1">
                    <mxGeometry x="-2379.99" y="-1962.5" width="80" height="40" as="geometry"/>
                </mxCell>
                <mxCell id="390" value="REGISTRATO" style="whiteSpace=wrap;html=1;" parent="1" vertex="1">
                    <mxGeometry x="-2139.99" y="-1962.5" width="80" height="40" as="geometry"/>
                </mxCell>
                <mxCell id="391" value="" style="shape=singleArrow;whiteSpace=wrap;html=1;arrowWidth=0.4;arrowSize=0.4;rotation=-90;fillColor=#000000;" parent="1" vertex="1">
                    <mxGeometry x="-2240.29" y="-2036.94" width="38.76" height="29.17" as="geometry"/>
                </mxCell>
                <mxCell id="392" value="(e)" style="text;html=1;align=center;verticalAlign=middle;resizable=0;points=[];autosize=1;strokeColor=none;fillColor=none;" parent="1" vertex="1">
                    <mxGeometry x="-2222.6" y="-2028.8600000000001" width="40" height="30" as="geometry"/>
                </mxCell>
                <mxCell id="393" value="" style="endArrow=oval;html=1;fillStyle=auto;strokeWidth=1;startSize=6;endSize=6;fillColor=#000000;startArrow=none;startFill=0;endFill=1;exitX=0.5;exitY=0;exitDx=0;exitDy=0;" parent="1" source="386" edge="1">
                    <mxGeometry width="50" height="50" relative="1" as="geometry">
                        <mxPoint x="-2080.5699999999997" y="-1500.8400000000001" as="sourcePoint"/>
                        <mxPoint x="-2220.5699999999997" y="-2106.02" as="targetPoint"/>
                    </mxGeometry>
                </mxCell>
                <mxCell id="394" value="nome utente" style="edgeLabel;html=1;align=center;verticalAlign=middle;resizable=0;points=[];" parent="393" vertex="1" connectable="0">
                    <mxGeometry x="0.4791" y="1" relative="1" as="geometry">
                        <mxPoint x="-30" y="-21" as="offset"/>
                    </mxGeometry>
                </mxCell>
                <mxCell id="395" value="" style="endArrow=oval;html=1;fillStyle=auto;strokeWidth=1;startSize=6;endSize=6;fillColor=#000000;startArrow=none;startFill=0;endFill=0;" parent="1" source="390" edge="1">
                    <mxGeometry width="50" height="50" relative="1" as="geometry">
                        <mxPoint x="-2178.8999999999996" y="-1654.2333333333331" as="sourcePoint"/>
                        <mxPoint x="-2139.99" y="-1981.8600000000001" as="targetPoint"/>
                    </mxGeometry>
                </mxCell>
                <mxCell id="396" value="password" style="edgeLabel;html=1;align=center;verticalAlign=middle;resizable=0;points=[];" parent="395" vertex="1" connectable="0">
                    <mxGeometry x="0.4791" y="1" relative="1" as="geometry">
                        <mxPoint x="-34" y="-16" as="offset"/>
                    </mxGeometry>
                </mxCell>
                <mxCell id="397" value="" style="endArrow=oval;html=1;fillStyle=auto;strokeWidth=1;startSize=6;endSize=6;fillColor=#000000;startArrow=none;startFill=0;endFill=0;" parent="1" source="390" edge="1">
                    <mxGeometry width="50" height="50" relative="1" as="geometry">
                        <mxPoint x="-2163.8999999999996" y="-1660.9" as="sourcePoint"/>
                        <mxPoint x="-2043.99" y="-1904.8600000000001" as="targetPoint"/>
                    </mxGeometry>
                </mxCell>
                <mxCell id="398" value="indirizzo&lt;br&gt;mail" style="edgeLabel;html=1;align=center;verticalAlign=middle;resizable=0;points=[];" parent="397" vertex="1" connectable="0">
                    <mxGeometry x="0.4791" y="1" relative="1" as="geometry">
                        <mxPoint x="35" y="11" as="offset"/>
                    </mxGeometry>
                </mxCell>
                <mxCell id="399" value="" style="endArrow=oval;html=1;fillStyle=auto;strokeWidth=1;startSize=6;endSize=6;fillColor=#000000;startArrow=none;startFill=0;endFill=0;" parent="1" edge="1">
                    <mxGeometry width="50" height="50" relative="1" as="geometry">
                        <mxPoint x="-2088.914408427877" y="-1962.5" as="sourcePoint"/>
                        <mxPoint x="-2079.99" y="-1991.8600000000001" as="targetPoint"/>
                    </mxGeometry>
                </mxCell>
                <mxCell id="400" value="numero&lt;br&gt;di&lt;br&gt;telefono" style="edgeLabel;html=1;align=center;verticalAlign=middle;resizable=0;points=[];" parent="399" vertex="1" connectable="0">
                    <mxGeometry x="0.4791" y="1" relative="1" as="geometry">
                        <mxPoint x="13" y="-36" as="offset"/>
                    </mxGeometry>
                </mxCell>
                <mxCell id="401" value="" style="endArrow=oval;html=1;fillStyle=auto;strokeWidth=1;startSize=6;endSize=6;fillColor=#000000;startArrow=none;startFill=0;endFill=0;" parent="1" source="390" edge="1">
                    <mxGeometry width="50" height="50" relative="1" as="geometry">
                        <mxPoint x="-2143.8999999999996" y="-1640.9" as="sourcePoint"/>
                        <mxPoint x="-2039.99" y="-1981.8600000000001" as="targetPoint"/>
                    </mxGeometry>
                </mxCell>
                <mxCell id="402" value="data&lt;br&gt;di&lt;br&gt;nascita" style="edgeLabel;html=1;align=center;verticalAlign=middle;resizable=0;points=[];" parent="401" vertex="1" connectable="0">
                    <mxGeometry x="0.4791" y="1" relative="1" as="geometry">
                        <mxPoint x="32" y="-4" as="offset"/>
                    </mxGeometry>
                </mxCell>
                <mxCell id="403" value="" style="endArrow=oval;html=1;fillStyle=auto;strokeWidth=1;startSize=6;endSize=6;fillColor=#000000;startArrow=none;startFill=0;endFill=0;" parent="1" source="390" edge="1">
                    <mxGeometry width="50" height="50" relative="1" as="geometry">
                        <mxPoint x="-2109.3199999999997" y="-1953.08" as="sourcePoint"/>
                        <mxPoint x="-2109.99" y="-1981.8600000000001" as="targetPoint"/>
                    </mxGeometry>
                </mxCell>
                <mxCell id="404" value="LIS" style="edgeLabel;html=1;align=center;verticalAlign=middle;resizable=0;points=[];" parent="403" vertex="1" connectable="0">
                    <mxGeometry x="0.4791" y="1" relative="1" as="geometry">
                        <mxPoint x="-1" y="-18" as="offset"/>
                    </mxGeometry>
                </mxCell>
                <mxCell id="405" style="edgeStyle=elbowEdgeStyle;html=1;exitX=0.5;exitY=1;exitDx=0;exitDy=0;entryX=0.5;entryY=0;entryDx=0;entryDy=0;endArrow=none;endFill=0;elbow=vertical;rounded=0;jumpStyle=arc;" parent="1" target="407" edge="1">
                    <mxGeometry relative="1" as="geometry">
                        <mxPoint x="-2100.21" y="-1921.5" as="sourcePoint"/>
                        <mxPoint x="-2160.19" y="-1803.1399999999999" as="targetPoint"/>
                    </mxGeometry>
                </mxCell>
                <mxCell id="406" style="edgeStyle=elbowEdgeStyle;elbow=vertical;html=1;exitX=0.5;exitY=1;exitDx=0;exitDy=0;entryX=0.5;entryY=0;entryDx=0;entryDy=0;endArrow=none;endFill=0;rounded=0;jumpStyle=arc;" parent="1" target="408" edge="1">
                    <mxGeometry relative="1" as="geometry">
                        <mxPoint x="-2100.21" y="-1921.5" as="sourcePoint"/>
                    </mxGeometry>
                </mxCell>
                <mxCell id="407" value="STREAMER" style="whiteSpace=wrap;html=1;" parent="1" vertex="1">
                    <mxGeometry x="-2259.6" y="-1842.1399999999999" width="80" height="40" as="geometry"/>
                </mxCell>
                <mxCell id="408" value="SPETTATORE" style="whiteSpace=wrap;html=1;" parent="1" vertex="1">
                    <mxGeometry x="-2019.6" y="-1842.1399999999999" width="80" height="40" as="geometry"/>
                </mxCell>
                <mxCell id="409" value="" style="shape=singleArrow;whiteSpace=wrap;html=1;arrowWidth=0.4;arrowSize=0.4;rotation=-90;fillColor=#000000;" parent="1" vertex="1">
                    <mxGeometry x="-2119.8999999999996" y="-1916.58" width="38.76" height="29.17" as="geometry"/>
                </mxCell>
                <mxCell id="410" value="(s)" style="text;html=1;align=center;verticalAlign=middle;resizable=0;points=[];autosize=1;strokeColor=none;fillColor=none;" parent="1" vertex="1">
                    <mxGeometry x="-2102.21" y="-1908.5" width="40" height="30" as="geometry"/>
                </mxCell>
                <mxCell id="411" value="" style="edgeStyle=none;shape=connector;rounded=1;fillStyle=auto;html=1;labelBackgroundColor=default;strokeColor=default;strokeWidth=1;fontFamily=Helvetica;fontSize=11;fontColor=default;endArrow=none;startSize=6;endSize=6;fillColor=#000000;exitX=0.5;exitY=1;exitDx=0;exitDy=0;" parent="1" target="414" edge="1">
                    <mxGeometry relative="1" as="geometry">
                        <mxPoint x="-2220.6400000000003" y="-1802.1399999999999" as="sourcePoint"/>
                    </mxGeometry>
                </mxCell>
                <mxCell id="412" value="(1, 1)" style="edgeLabel;html=1;align=center;verticalAlign=middle;resizable=0;points=[];fontSize=11;fontFamily=Helvetica;fontColor=default;" parent="411" vertex="1" connectable="0">
                    <mxGeometry x="-0.2675" y="1" relative="1" as="geometry">
                        <mxPoint x="14" y="18" as="offset"/>
                    </mxGeometry>
                </mxCell>
                <mxCell id="414" value="controllo" style="rhombus;whiteSpace=wrap;html=1;" parent="1" vertex="1">
                    <mxGeometry x="-2260" y="-1760" width="80" height="40" as="geometry"/>
                </mxCell>
                <mxCell id="420" value="" style="endArrow=oval;html=1;fillStyle=auto;strokeWidth=1;startSize=6;endSize=6;fillColor=#000000;startArrow=none;startFill=0;endFill=0;exitX=1;exitY=0.75;exitDx=0;exitDy=0;" parent="1" source="390" edge="1">
                    <mxGeometry width="50" height="50" relative="1" as="geometry">
                        <mxPoint x="-2070.304960629921" y="-1912.5" as="sourcePoint"/>
                        <mxPoint x="-2033.99" y="-1925.8600000000001" as="targetPoint"/>
                    </mxGeometry>
                </mxCell>
                <mxCell id="421" value="premium" style="edgeLabel;html=1;align=center;verticalAlign=middle;resizable=0;points=[];" parent="420" vertex="1" connectable="0">
                    <mxGeometry x="0.4791" y="1" relative="1" as="geometry">
                        <mxPoint x="38" y="3" as="offset"/>
                    </mxGeometry>
                </mxCell>
                <mxCell id="442" value="&lt;font style=&quot;font-size: 10px;&quot;&gt;(0,1)&lt;/font&gt;" style="text;html=1;align=center;verticalAlign=middle;resizable=0;points=[];autosize=1;strokeColor=none;fillColor=none;" parent="1" vertex="1">
                    <mxGeometry x="-2090.99" y="-1998.8600000000001" width="40" height="30" as="geometry"/>
                </mxCell>
                <mxCell id="443" value="(0,1)" style="text;html=1;align=center;verticalAlign=middle;resizable=0;points=[];autosize=1;strokeColor=none;fillColor=none;fontSize=10;" parent="1" vertex="1">
                    <mxGeometry x="-2081.1400000000003" y="-1916.58" width="39" height="24" as="geometry"/>
                </mxCell>
                <mxCell id="444" value="" style="endArrow=none;html=1;" parent="1" edge="1">
                    <mxGeometry width="50" height="50" relative="1" as="geometry">
                        <mxPoint x="-2169.99" y="-1781.8600000000001" as="sourcePoint"/>
                        <mxPoint x="-2189.99" y="-1801.8600000000001" as="targetPoint"/>
                    </mxGeometry>
                </mxCell>
                <mxCell id="445" value="" style="ellipse;whiteSpace=wrap;html=1;aspect=fixed;" parent="1" vertex="1">
                    <mxGeometry x="-2171.99" y="-1784.8600000000001" width="6" height="6" as="geometry"/>
                </mxCell>
                <mxCell id="446" value="&lt;font style=&quot;font-size: 11px;&quot;&gt;affiliate&lt;/font&gt;" style="text;html=1;align=center;verticalAlign=middle;resizable=0;points=[];autosize=1;strokeColor=none;fillColor=none;" parent="1" vertex="1">
                    <mxGeometry x="-2172.9" y="-1794.8600000000001" width="53" height="26" as="geometry"/>
                </mxCell>
                <mxCell id="449" value="" style="endArrow=none;html=1;entryX=0.5;entryY=1;entryDx=0;entryDy=0;" parent="1" target="414" edge="1">
                    <mxGeometry width="50" height="50" relative="1" as="geometry">
                        <mxPoint x="-2220" y="-1701" as="sourcePoint"/>
                        <mxPoint x="-2129" y="-1752" as="targetPoint"/>
                    </mxGeometry>
                </mxCell>
                <mxCell id="456" value="" style="endArrow=oval;html=1;fillStyle=auto;strokeWidth=1;startSize=6;endSize=6;fillColor=#000000;startArrow=none;startFill=0;endFill=0;exitX=-0.003;exitY=0.13;exitDx=0;exitDy=0;exitPerimeter=0;fontSize=11;" parent="1" edge="1">
                    <mxGeometry width="50" height="50" relative="1" as="geometry">
                        <mxPoint x="-2140.0299999999997" y="-1955.7999999999997" as="sourcePoint"/>
                        <mxPoint x="-2199.79" y="-1970.3600000000001" as="targetPoint"/>
                    </mxGeometry>
                </mxCell>
                <mxCell id="457" value="data di&lt;br&gt;registrazione" style="text;html=1;align=center;verticalAlign=middle;resizable=0;points=[];autosize=1;strokeColor=none;fillColor=none;fontSize=11;" parent="1" vertex="1">
                    <mxGeometry x="-2279.99" y="-1991" width="90" height="40" as="geometry"/>
                </mxCell>
                <mxCell id="458" value="(0, N)" style="edgeLabel;html=1;align=center;verticalAlign=middle;resizable=0;points=[];fontSize=11;fontFamily=Helvetica;fontColor=default;" vertex="1" connectable="0" parent="1">
                    <mxGeometry x="-2042.1411576034493" y="-1768.862545585393" as="geometry">
                        <mxPoint y="3" as="offset"/>
                    </mxGeometry>
                </mxCell>
                <mxCell id="459" value="streaming" style="rhombus;whiteSpace=wrap;html=1;" vertex="1" parent="1">
                    <mxGeometry x="-2099.6" y="-1760.14" width="80" height="40" as="geometry"/>
                </mxCell>
                <mxCell id="460" value="" style="endArrow=none;html=1;entryX=0.5;entryY=1;entryDx=0;entryDy=0;" edge="1" parent="1" target="459">
                    <mxGeometry width="50" height="50" relative="1" as="geometry">
                        <mxPoint x="-2059.6" y="-1701.14" as="sourcePoint"/>
                        <mxPoint x="-1968.6" y="-1752.14" as="targetPoint"/>
                    </mxGeometry>
                </mxCell>
                <mxCell id="461" value="" style="endArrow=none;html=1;entryX=1;entryY=0.5;entryDx=0;entryDy=0;exitX=0.5;exitY=0;exitDx=0;exitDy=0;" edge="1" parent="1" source="459" target="407">
                    <mxGeometry width="50" height="50" relative="1" as="geometry">
                        <mxPoint x="-2130" y="-1760" as="sourcePoint"/>
                        <mxPoint x="-2080" y="-1810" as="targetPoint"/>
                        <Array as="points">
                            <mxPoint x="-2060" y="-1822"/>
                        </Array>
                    </mxGeometry>
                </mxCell>
            </root>
        </mxGraphModel>
    </diagram>
</mxfile>